<!DOCTYPE svg PUBLIC "-//W3C//DTD SVG 1.1//EN" "http://www.w3.org/Graphics/SVG/1.1/DTD/svg11.dtd">

<!-- Uploaded to: SVG Repo, www.svgrepo.com, Transformed by: SVG Repo Mixer Tools -->
<svg height="28px" width="25px" version="1.1" id="Layer_1" xmlns="http://www.w3.org/2000/svg" xmlns:xlink="http://www.w3.org/1999/xlink" viewBox="-51.2 -51.2 614.40 614.40" xml:space="preserve" fill="#43276d">

<g id="SVGRepo_bgCarrier" stroke-width="0">

<rect x="-51.2" y="-51.2" width="614.40" height="614.40" rx="0" fill="#7ed0ec" strokewidth="0"/>

</g>

<g id="SVGRepo_tracerCarrier" stroke-linecap="round" stroke-linejoin="round"/>

<g id="SVGRepo_iconCarrier"> <path style="fill:#EB86BF;" d="M0,256.006C0,397.402,114.606,512.004,255.996,512C397.394,512.004,512,397.402,512,256.006 C512.009,114.61,397.394,0,255.996,0C114.606,0,0,114.614,0,256.006z"/> <path style="fill:#D670AD;" d="M512,256.005c0-4.039-0.119-8.051-0.304-12.045c-0.426-0.558-93.859-94.043-94.499-94.499 c-1.281-1.797-3.28-3.045-5.658-3.045H201.899c-1.885,0-3.7,0.756-5.026,2.099L95.436,251.029c-2.727,2.755-2.727,7.187,0,9.942 l101.437,102.514c0.015,0.015,0.036,0.019,0.051,0.034l1.581,1.598c0.015,0.015,133.868,133.851,133.883,133.866l1.055,1.067 C436.972,467.232,512,370.401,512,256.005z"/> <g> <path style="fill:#F4F6F9;" d="M411.539,146.416H201.9c-1.885,0-3.7,0.756-5.026,2.099L95.436,251.029 c-2.727,2.755-2.727,7.187,0,9.942l101.437,102.514c1.326,1.343,3.141,2.099,5.026,2.099h209.641c3.908,0,7.07-3.166,7.07-7.07 V153.486C418.609,149.582,415.447,146.416,411.539,146.416z M404.469,351.444H204.847L110.412,256l94.436-95.444h199.621V351.444z"/> <path style="fill:#F4F6F9;" d="M258.073,306.949c1.381,1.381,3.189,2.071,4.998,2.071c1.809,0,3.618-0.69,4.998-2.071 l40.955-40.955l40.958,40.958c1.381,1.381,3.189,2.071,4.998,2.071s3.618-0.69,4.998-2.071c2.762-2.762,2.762-7.235,0-9.997 l-40.958-40.958l40.958-40.958c2.762-2.762,2.762-7.235,0-9.997c-2.762-2.762-7.235-2.762-9.997,0l-40.958,40.958l-40.955-40.955 c-2.762-2.762-7.235-2.762-9.997,0c-2.762,2.762-2.762,7.235,0,9.997l40.955,40.955l-40.955,40.955 C255.311,299.714,255.311,304.188,258.073,306.949z"/> </g> </g>

</svg>